<?xml version="1.0" encoding="UTF-8" standalone="no"?>
<!-- Created with Inkscape (http://www.inkscape.org/) -->

<svg
   version="1.1"
   id="svg2"
   width="1280"
   height="1280"
   viewBox="0 0 1280 1280"
   sodipodi:docname="splash.eps"
   xmlns:inkscape="http://www.inkscape.org/namespaces/inkscape"
   xmlns:sodipodi="http://sodipodi.sourceforge.net/DTD/sodipodi-0.dtd"
   xmlns="http://www.w3.org/2000/svg"
   xmlns:svg="http://www.w3.org/2000/svg">
  <defs
     id="defs6" />
  <sodipodi:namedview
     id="namedview4"
     pagecolor="#ffffff"
     bordercolor="#000000"
     borderopacity="0.25"
     inkscape:showpageshadow="2"
     inkscape:pageopacity="0.0"
     inkscape:pagecheckerboard="0"
     inkscape:deskcolor="#d1d1d1" />
  <g
     id="g8"
     inkscape:groupmode="layer"
     inkscape:label="ink_ext_XXXXXX"
     transform="matrix(1.3333333,0,0,-1.3333333,0,1280)">
    <g
       id="g10"
       transform="scale(0.1)">
      <path
         d="m 3400,9400 v 200 h 800 v -200 h -800 v 0"
         style="fill:#396993;fill-opacity:1;fill-rule:evenodd;stroke:none"
         id="path12" />
      <path
         d="m 3400,9400 v -400 h -200 v 400 h 200 v 0"
         style="fill:#396993;fill-opacity:1;fill-rule:evenodd;stroke:none"
         id="path14" />
      <path
         d="m 4200,9400 h 200 v -200 h -200 v 200 0"
         style="fill:#396993;fill-opacity:1;fill-rule:evenodd;stroke:none"
         id="path16" />
      <path
         d="m 4400,9200 h 200 v -800 h -200 v 200 200 400 0"
         style="fill:#396993;fill-opacity:1;fill-rule:evenodd;stroke:none"
         id="path18" />
      <path
         d="m 3400,9000 h 200 v -200 h -200 v 200 0"
         style="fill:#396993;fill-opacity:1;fill-rule:evenodd;stroke:none"
         id="path20" />
      <path
         d="m 3600,8800 h 200 v -200 h -200 v 200 0"
         style="fill:#396993;fill-opacity:1;fill-rule:evenodd;stroke:none"
         id="path22" />
      <path
         d="m 3800,8600 h 200 v -200 h -200 v 200 0"
         style="fill:#396993;fill-opacity:1;fill-rule:evenodd;stroke:none"
         id="path24" />
      <path
         d="m 4000,8400 h 200 v -400 h -200 v 200 200 0"
         style="fill:#396993;fill-opacity:1;fill-rule:evenodd;stroke:none"
         id="path26" />
      <path
         d="m 4600,8400 h 200 V 6600 h -200 v 200 200 h -200 v 200 200 h 200 v 200 200 600 0"
         style="fill:#396993;fill-opacity:1;fill-rule:evenodd;stroke:none"
         id="path28" />
      <path
         d="m 4200,8000 h 200 v -600 h -200 v 200 200 200 0"
         style="fill:#396993;fill-opacity:1;fill-rule:evenodd;stroke:none"
         id="path30" />
      <path
         d="m 6800,7800 v 200 h 400 v -200 h -400 v 0"
         style="fill:#396993;fill-opacity:1;fill-rule:evenodd;stroke:none"
         id="path32" />
      <path
         d="m 6600,7600 v 200 h 200 v -200 h -200 v 0"
         style="fill:#396993;fill-opacity:1;fill-rule:evenodd;stroke:none"
         id="path34" />
      <path
         d="m 7200,7800 h 200 v -600 h -200 v 600 0"
         style="fill:#396993;fill-opacity:1;fill-rule:evenodd;stroke:none"
         id="path36" />
      <path
         d="m 600,7400 v 200 h 800 V 7400 H 600 v 0"
         style="fill:#396993;fill-opacity:1;fill-rule:evenodd;stroke:none"
         id="path38" />
      <path
         d="m 6600,7600 v -400 h -200 v 400 h 200 v 0"
         style="fill:#396993;fill-opacity:1;fill-rule:evenodd;stroke:none"
         id="path40" />
      <path
         d="M 600,7400 V 7000 H 400 v 400 h 200 v 0"
         style="fill:#396993;fill-opacity:1;fill-rule:evenodd;stroke:none"
         id="path42" />
      <path
         d="m 1400,7400 h 400 v -200 h -400 v 200 0"
         style="fill:#396993;fill-opacity:1;fill-rule:evenodd;stroke:none"
         id="path44" />
      <path
         d="m 2800,7200 v 200 h 600 v -200 h -600 v 0"
         style="fill:#396993;fill-opacity:1;fill-rule:evenodd;stroke:none"
         id="path46" />
      <path
         d="m 1800,7200 h 200 v -200 h -200 v 200 0"
         style="fill:#396993;fill-opacity:1;fill-rule:evenodd;stroke:none"
         id="path48" />
      <path
         d="m 2800,7200 v -600 h -200 v 600 h 200 v 0"
         style="fill:#396993;fill-opacity:1;fill-rule:evenodd;stroke:none"
         id="path50" />
      <path
         d="m 3400,7200 h 200 v -200 h -200 v 200 0"
         style="fill:#396993;fill-opacity:1;fill-rule:evenodd;stroke:none"
         id="path52" />
      <path
         d="m 6400,7200 v -800 h 200 v -400 h -200 v -600 h -200 v 200 200 200 200 200 800 h 200 v 0"
         style="fill:#396993;fill-opacity:1;fill-rule:evenodd;stroke:none"
         id="path54" />
      <path
         d="m 7000,7000 v 200 h 200 v -200 h -200 v 0"
         style="fill:#396993;fill-opacity:1;fill-rule:evenodd;stroke:none"
         id="path56" />
      <path
         d="m 600,7000 h 800 V 6800 H 600 v 200 0"
         style="fill:#396993;fill-opacity:1;fill-rule:evenodd;stroke:none"
         id="path58" />
      <path
         d="m 2000,6800 v 200 h 200 v -200 h -200 v 0"
         style="fill:#396993;fill-opacity:1;fill-rule:evenodd;stroke:none"
         id="path60" />
      <path
         d="m 3600,7000 h 200 v -200 h -200 v 200 0"
         style="fill:#396993;fill-opacity:1;fill-rule:evenodd;stroke:none"
         id="path62" />
      <path
         d="m 6800,6800 v 200 h 200 v -200 h -200 v 0"
         style="fill:#396993;fill-opacity:1;fill-rule:evenodd;stroke:none"
         id="path64" />
      <path
         d="m 1400,6800 h 600 v -200 h -600 v 200 0"
         style="fill:#396993;fill-opacity:1;fill-rule:evenodd;stroke:none"
         id="path66" />
      <path
         d="m 2200,6800 h 200 v -400 h 200 v -200 h 200 v -200 -200 h -200 v 200 h -200 v 200 h -200 v 200 h -200 v 200 h 200 v 200 0"
         style="fill:#396993;fill-opacity:1;fill-rule:evenodd;stroke:none"
         id="path68" />
      <path
         d="m 3800,6800 h 200 v -400 h -200 v 200 200 0"
         style="fill:#396993;fill-opacity:1;fill-rule:evenodd;stroke:none"
         id="path70" />
      <path
         d="m 6800,6800 v -400 h -200 v 400 h 200 v 0"
         style="fill:#396993;fill-opacity:1;fill-rule:evenodd;stroke:none"
         id="path72" />
      <path
         d="m 200,6400 v 200 H 600 V 6400 H 200 v 0"
         style="fill:#396993;fill-opacity:1;fill-rule:evenodd;stroke:none"
         id="path74" />
      <path
         d="m 2800,6600 h 200 v -200 h -200 v 200 0"
         style="fill:#396993;fill-opacity:1;fill-rule:evenodd;stroke:none"
         id="path76" />
      <path
         d="M 0,6400 H 200 V 5800 H 0 v 600 0"
         style="fill:#396993;fill-opacity:1;fill-rule:evenodd;stroke:none"
         id="path78" />
      <path
         d="m 600,6400 h 400 V 6200 H 600 v 200 0"
         style="fill:#396993;fill-opacity:1;fill-rule:evenodd;stroke:none"
         id="path80" />
      <path
         d="m 3000,6400 h 400 v -200 h -400 v 200 0"
         style="fill:#396993;fill-opacity:1;fill-rule:evenodd;stroke:none"
         id="path82" />
      <path
         d="m 4000,6400 h 200 v -400 h -200 v 200 200 0"
         style="fill:#396993;fill-opacity:1;fill-rule:evenodd;stroke:none"
         id="path84" />
      <path
         d="m 1000,6200 h 200 v -200 h -200 v 200 0"
         style="fill:#396993;fill-opacity:1;fill-rule:evenodd;stroke:none"
         id="path86" />
      <path
         d="m 3400,6200 h 200 v -200 h -200 v 200 0"
         style="fill:#396993;fill-opacity:1;fill-rule:evenodd;stroke:none"
         id="path88" />
      <path
         d="m 1200,6000 h 200 v -200 h -200 v 200 0"
         style="fill:#396993;fill-opacity:1;fill-rule:evenodd;stroke:none"
         id="path90" />
      <path
         d="m 3600,6000 h 200 v -200 h -200 v 200 0"
         style="fill:#396993;fill-opacity:1;fill-rule:evenodd;stroke:none"
         id="path92" />
      <path
         d="m 4200,6000 h 200 v -600 h -200 v 600 0"
         style="fill:#396993;fill-opacity:1;fill-rule:evenodd;stroke:none"
         id="path94" />
      <path
         d="m 7800,5800 v 200 h 400 v -200 h -400 v 0"
         style="fill:#396993;fill-opacity:1;fill-rule:evenodd;stroke:none"
         id="path96" />
      <path
         d="m 200,5800 h 800 V 5600 H 200 v 200 0"
         style="fill:#396993;fill-opacity:1;fill-rule:evenodd;stroke:none"
         id="path98" />
      <path
         d="m 1400,5800 h 200 v -200 h 200 v -200 h -400 -200 -200 v 200 h 200 200 v 200 0"
         style="fill:#396993;fill-opacity:1;fill-rule:evenodd;stroke:none"
         id="path100" />
      <path
         d="m 2800,5800 h 200 v -200 h -200 v 200 0"
         style="fill:#396993;fill-opacity:1;fill-rule:evenodd;stroke:none"
         id="path102" />
      <path
         d="m 3800,5800 h 200 v -400 h -200 v 200 200 0"
         style="fill:#396993;fill-opacity:1;fill-rule:evenodd;stroke:none"
         id="path104" />
      <path
         d="m 5000,5600 v 200 h 600 v -200 h -600 v 0"
         style="fill:#396993;fill-opacity:1;fill-rule:evenodd;stroke:none"
         id="path106" />
      <path
         d="m 7600,5600 v 200 h 200 v -200 h -200 v 0"
         style="fill:#396993;fill-opacity:1;fill-rule:evenodd;stroke:none"
         id="path108" />
      <path
         d="m 8200,5600 v 200 h 200 v -200 h -200 v 0"
         style="fill:#396993;fill-opacity:1;fill-rule:evenodd;stroke:none"
         id="path110" />
      <path
         d="m 3000,5600 h 200 v -200 h -200 v 200 0"
         style="fill:#396993;fill-opacity:1;fill-rule:evenodd;stroke:none"
         id="path112" />
      <path
         d="m 5000,5600 v -600 h -200 v 600 h 200 v 0"
         style="fill:#396993;fill-opacity:1;fill-rule:evenodd;stroke:none"
         id="path114" />
      <path
         d="m 5600,5600 h 200 V 4600 h -200 v 200 200 200 400 0"
         style="fill:#396993;fill-opacity:1;fill-rule:evenodd;stroke:none"
         id="path116" />
      <path
         d="m 7600,5600 v -400 h 200 v -200 h -200 v -200 h -200 v 200 200 400 h 200 v 0"
         style="fill:#396993;fill-opacity:1;fill-rule:evenodd;stroke:none"
         id="path118" />
      <path
         d="m 8000,5400 v 200 h 200 v -200 h -200 v 0"
         style="fill:#396993;fill-opacity:1;fill-rule:evenodd;stroke:none"
         id="path120" />
      <path
         d="m 1800,5400 h 200 v -200 h -200 v 200 0"
         style="fill:#396993;fill-opacity:1;fill-rule:evenodd;stroke:none"
         id="path122" />
      <path
         d="m 4000,5400 h 200 v -400 h -200 v 200 200 0"
         style="fill:#396993;fill-opacity:1;fill-rule:evenodd;stroke:none"
         id="path124" />
      <path
         d="m 4400,5400 h 200 V 4200 h -200 v 200 200 h -200 v 200 200 h 200 v 200 200 0"
         style="fill:#396993;fill-opacity:1;fill-rule:evenodd;stroke:none"
         id="path126" />
      <path
         d="m 7800,5200 v 200 h 200 v -200 h -200 v 0"
         style="fill:#396993;fill-opacity:1;fill-rule:evenodd;stroke:none"
         id="path128" />
      <path
         d="m 600,4800 v 200 H 1800 V 4800 H 600 v 0"
         style="fill:#396993;fill-opacity:1;fill-rule:evenodd;stroke:none"
         id="path130" />
      <path
         d="m 5000,5000 h 200 v -400 h -200 v 200 200 0"
         style="fill:#396993;fill-opacity:1;fill-rule:evenodd;stroke:none"
         id="path132" />
      <path
         d="m 6600,4800 v 200 h 400 v -200 h -400 v 0"
         style="fill:#396993;fill-opacity:1;fill-rule:evenodd;stroke:none"
         id="path134" />
      <path
         d="M 600,4800 V 4400 H 400 v 400 h 200 v 0"
         style="fill:#396993;fill-opacity:1;fill-rule:evenodd;stroke:none"
         id="path136" />
      <path
         d="m 1800,4800 h 400 v -200 h -400 v 200 0"
         style="fill:#396993;fill-opacity:1;fill-rule:evenodd;stroke:none"
         id="path138" />
      <path
         d="m 6600,4800 v -400 h -200 v 400 h 200 v 0"
         style="fill:#396993;fill-opacity:1;fill-rule:evenodd;stroke:none"
         id="path140" />
      <path
         d="m 7000,4800 h 200 v -600 h -200 v 600 0"
         style="fill:#396993;fill-opacity:1;fill-rule:evenodd;stroke:none"
         id="path142" />
      <path
         d="m 2200,4600 h 200 v -200 h -200 v 200 0"
         style="fill:#396993;fill-opacity:1;fill-rule:evenodd;stroke:none"
         id="path144" />
      <path
         d="m 5200,4600 h 200 v -400 h -200 v 200 200 0"
         style="fill:#396993;fill-opacity:1;fill-rule:evenodd;stroke:none"
         id="path146" />
      <path
         d="m 5800,4600 h 200 V 3000 h -200 v -200 -200 -200 -200 h -200 v 200 h -200 v 400 h 200 v 200 600 h 200 v 200 800 0"
         style="fill:#396993;fill-opacity:1;fill-rule:evenodd;stroke:none"
         id="path148" />
      <path
         d="M 600,4400 H 1800 V 4200 H 600 v 200 0"
         style="fill:#396993;fill-opacity:1;fill-rule:evenodd;stroke:none"
         id="path150" />
      <path
         d="m 2400,4200 v 200 h 200 v -200 h -200 v 0"
         style="fill:#396993;fill-opacity:1;fill-rule:evenodd;stroke:none"
         id="path152" />
      <path
         d="m 6400,4400 v -800 h 200 v -400 h -200 v -200 h -200 v 200 200 200 200 200 200 200 h 200 v 0"
         style="fill:#396993;fill-opacity:1;fill-rule:evenodd;stroke:none"
         id="path154" />
      <path
         d="m 1800,4200 h 600 v -200 h -600 v 200 0"
         style="fill:#396993;fill-opacity:1;fill-rule:evenodd;stroke:none"
         id="path156" />
      <path
         d="m 2600,4200 h 200 v -200 h 200 v -200 h -200 -200 -200 v 200 h 200 v 200 0"
         style="fill:#396993;fill-opacity:1;fill-rule:evenodd;stroke:none"
         id="path158" />
      <path
         d="m 5400,4200 h 200 v -600 h -200 v 200 200 200 0"
         style="fill:#396993;fill-opacity:1;fill-rule:evenodd;stroke:none"
         id="path160" />
      <path
         d="m 6800,4000 v 200 h 200 v -200 h -200 v 0"
         style="fill:#396993;fill-opacity:1;fill-rule:evenodd;stroke:none"
         id="path162" />
      <path
         d="m 4400,3800 v 200 h 400 v -200 h -400 v 0"
         style="fill:#396993;fill-opacity:1;fill-rule:evenodd;stroke:none"
         id="path164" />
      <path
         d="m 6800,4000 v -400 h -200 v 400 h 200 v 0"
         style="fill:#396993;fill-opacity:1;fill-rule:evenodd;stroke:none"
         id="path166" />
      <path
         d="m 3000,3800 h 200 v -200 h -200 v 200 0"
         style="fill:#396993;fill-opacity:1;fill-rule:evenodd;stroke:none"
         id="path168" />
      <path
         d="m 4400,3800 v -600 h -200 v 600 h 200 v 0"
         style="fill:#396993;fill-opacity:1;fill-rule:evenodd;stroke:none"
         id="path170" />
      <path
         d="m 4800,3800 h 200 v -200 h -200 v 200 0"
         style="fill:#396993;fill-opacity:1;fill-rule:evenodd;stroke:none"
         id="path172" />
      <path
         d="m 5000,3600 h 200 v -400 h -200 v 200 200 0"
         style="fill:#396993;fill-opacity:1;fill-rule:evenodd;stroke:none"
         id="path174" />
      <path
         d="m 8600,3400 v 200 h 800 v -200 h -800 v 0"
         style="fill:#396993;fill-opacity:1;fill-rule:evenodd;stroke:none"
         id="path176" />
      <path
         d="m 3200,3200 v 200 h 600 v -200 h -600 v 0"
         style="fill:#396993;fill-opacity:1;fill-rule:evenodd;stroke:none"
         id="path178" />
      <path
         d="m 7000,3200 v 200 h 400 v -200 h -400 v 0"
         style="fill:#396993;fill-opacity:1;fill-rule:evenodd;stroke:none"
         id="path180" />
      <path
         d="m 8200,3200 v 200 h 400 v -200 h -200 -200 v 0"
         style="fill:#396993;fill-opacity:1;fill-rule:evenodd;stroke:none"
         id="path182" />
      <path
         d="m 9400,3400 h 200 v -600 h -200 v 600 0"
         style="fill:#396993;fill-opacity:1;fill-rule:evenodd;stroke:none"
         id="path184" />
      <path
         d="m 3200,3200 v -600 h -200 v 600 h 200 v 0"
         style="fill:#396993;fill-opacity:1;fill-rule:evenodd;stroke:none"
         id="path186" />
      <path
         d="m 3800,3200 h 200 v -200 h -200 v 200 0"
         style="fill:#396993;fill-opacity:1;fill-rule:evenodd;stroke:none"
         id="path188" />
      <path
         d="m 4400,3200 h 200 v -200 h -200 v 200 0"
         style="fill:#396993;fill-opacity:1;fill-rule:evenodd;stroke:none"
         id="path190" />
      <path
         d="m 5200,3200 h 200 v -400 h -200 v 400 0"
         style="fill:#396993;fill-opacity:1;fill-rule:evenodd;stroke:none"
         id="path192" />
      <path
         d="m 7000,3200 v -600 h -200 v 600 h 200 v 0"
         style="fill:#396993;fill-opacity:1;fill-rule:evenodd;stroke:none"
         id="path194" />
      <path
         d="m 7400,3200 h 200 v -400 h -200 v 400 0"
         style="fill:#396993;fill-opacity:1;fill-rule:evenodd;stroke:none"
         id="path196" />
      <path
         d="m 8000,3000 v 200 h 200 v -200 h -200 v 0"
         style="fill:#396993;fill-opacity:1;fill-rule:evenodd;stroke:none"
         id="path198" />
      <path
         d="m 4000,3000 h 200 v -200 h -200 v 200 0"
         style="fill:#396993;fill-opacity:1;fill-rule:evenodd;stroke:none"
         id="path200" />
      <path
         d="m 4600,3000 h 400 v -200 h -400 v 200 0"
         style="fill:#396993;fill-opacity:1;fill-rule:evenodd;stroke:none"
         id="path202" />
      <path
         d="m 6000,3000 h 200 V 1800 h -200 v 200 200 200 600 0"
         style="fill:#396993;fill-opacity:1;fill-rule:evenodd;stroke:none"
         id="path204" />
      <path
         d="m 8000,3000 v -600 h -200 v 600 h 200 v 0"
         style="fill:#396993;fill-opacity:1;fill-rule:evenodd;stroke:none"
         id="path206" />
      <path
         d="m 1400,2600 v 200 h 800 v -200 h -800 v 0"
         style="fill:#396993;fill-opacity:1;fill-rule:evenodd;stroke:none"
         id="path208" />
      <path
         d="m 4200,2800 h 200 v -400 h -200 v 200 200 0"
         style="fill:#396993;fill-opacity:1;fill-rule:evenodd;stroke:none"
         id="path210" />
      <path
         d="m 5000,2800 h 200 v -400 h -200 v 200 200 0"
         style="fill:#396993;fill-opacity:1;fill-rule:evenodd;stroke:none"
         id="path212" />
      <path
         d="m 7400,2800 v -400 h -200 v 400 h 200 v 0"
         style="fill:#396993;fill-opacity:1;fill-rule:evenodd;stroke:none"
         id="path214" />
      <path
         d="m 8800,2600 v 200 h 600 v -200 h -200 -200 -200 v 0"
         style="fill:#396993;fill-opacity:1;fill-rule:evenodd;stroke:none"
         id="path216" />
      <path
         d="m 1000,2400 v 200 h 400 v -200 h -200 -200 v 0"
         style="fill:#396993;fill-opacity:1;fill-rule:evenodd;stroke:none"
         id="path218" />
      <path
         d="m 2200,2600 h 400 v -200 h 400 v -200 h -200 -200 -800 v 200 h 200 200 v 200 0"
         style="fill:#396993;fill-opacity:1;fill-rule:evenodd;stroke:none"
         id="path220" />
      <path
         d="m 3200,2600 h 200 v -200 h -200 v 200 0"
         style="fill:#396993;fill-opacity:1;fill-rule:evenodd;stroke:none"
         id="path222" />
      <path
         d="M 6800,2600 V 1000 h -200 v 200 h -200 v 200 h 200 v 200 200 200 200 200 200 h 200 v 0"
         style="fill:#396993;fill-opacity:1;fill-rule:evenodd;stroke:none"
         id="path224" />
      <path
         d="m 8400,2400 v 200 h 400 v -200 h -200 -200 v 0"
         style="fill:#396993;fill-opacity:1;fill-rule:evenodd;stroke:none"
         id="path226" />
      <path
         d="M 1000,2400 V 2000 H 800 v 400 h 200 v 0"
         style="fill:#396993;fill-opacity:1;fill-rule:evenodd;stroke:none"
         id="path228" />
      <path
         d="m 3400,2400 h 400 v -200 h -400 v 200 0"
         style="fill:#396993;fill-opacity:1;fill-rule:evenodd;stroke:none"
         id="path230" />
      <path
         d="m 4400,2400 h 200 v -400 h -200 v 400 0"
         style="fill:#396993;fill-opacity:1;fill-rule:evenodd;stroke:none"
         id="path232" />
      <path
         d="m 5200,2400 h 200 V 1400 h -200 v 200 200 600 0"
         style="fill:#396993;fill-opacity:1;fill-rule:evenodd;stroke:none"
         id="path234" />
      <path
         d="M 7200,2400 V 1400 h -200 v 1000 h 200 v 0"
         style="fill:#396993;fill-opacity:1;fill-rule:evenodd;stroke:none"
         id="path236" />
      <path
         d="m 7800,2400 v -400 h 200 v -400 h -200 v -200 h -200 v 800 200 h 200 v 0"
         style="fill:#396993;fill-opacity:1;fill-rule:evenodd;stroke:none"
         id="path238" />
      <path
         d="m 8200,2200 v 200 h 200 v -200 h -200 v 0"
         style="fill:#396993;fill-opacity:1;fill-rule:evenodd;stroke:none"
         id="path240" />
      <path
         d="m 1600,2000 v 200 h 200 v -200 h -200 v 0"
         style="fill:#396993;fill-opacity:1;fill-rule:evenodd;stroke:none"
         id="path242" />
      <path
         d="m 3800,2200 h 400 v -200 h -400 v 200 0"
         style="fill:#396993;fill-opacity:1;fill-rule:evenodd;stroke:none"
         id="path244" />
      <path
         d="m 8000,2000 v 200 h 200 v -200 h -200 v 0"
         style="fill:#396993;fill-opacity:1;fill-rule:evenodd;stroke:none"
         id="path246" />
      <path
         d="m 1000,2000 h 600 v -200 h -600 v 200 0"
         style="fill:#396993;fill-opacity:1;fill-rule:evenodd;stroke:none"
         id="path248" />
      <path
         d="m 4200,2000 h 200 v -200 h -200 v 200 0"
         style="fill:#396993;fill-opacity:1;fill-rule:evenodd;stroke:none"
         id="path250" />
      <path
         d="m 4600,2000 h 200 v -400 h 200 v -200 -200 h -200 v 200 h -200 v 200 h -200 v 200 h 200 v 200 0"
         style="fill:#396993;fill-opacity:1;fill-rule:evenodd;stroke:none"
         id="path252" />
      <path
         d="m 6200,1800 h 200 v -400 h -200 v 200 200 0"
         style="fill:#396993;fill-opacity:1;fill-rule:evenodd;stroke:none"
         id="path254" />
      <path
         d="m 5400,1400 h 200 v -400 h -200 v 200 200 0"
         style="fill:#396993;fill-opacity:1;fill-rule:evenodd;stroke:none"
         id="path256" />
      <path
         d="m 7200,1400 h 200 v -400 h -200 v 200 200 0"
         style="fill:#396993;fill-opacity:1;fill-rule:evenodd;stroke:none"
         id="path258" />
      <path
         d="m 5600,1000 h 200 V 800 h -200 v 200 0"
         style="fill:#396993;fill-opacity:1;fill-rule:evenodd;stroke:none"
         id="path260" />
      <path
         d="m 6800,1000 h 200 V 800 h -200 v 200 0"
         style="fill:#396993;fill-opacity:1;fill-rule:evenodd;stroke:none"
         id="path262" />
      <path
         d="m 7400,1000 h 200 V 800 h -200 v 200 0"
         style="fill:#396993;fill-opacity:1;fill-rule:evenodd;stroke:none"
         id="path264" />
      <path
         d="m 5800,800 h 200 V 600 h -200 v 200 0"
         style="fill:#396993;fill-opacity:1;fill-rule:evenodd;stroke:none"
         id="path266" />
      <path
         d="m 7600,800 h 200 V 600 h -200 v 200 0"
         style="fill:#396993;fill-opacity:1;fill-rule:evenodd;stroke:none"
         id="path268" />
      <path
         d="m 6000,600 h 400 V 400 h -400 v 200 0"
         style="fill:#396993;fill-opacity:1;fill-rule:evenodd;stroke:none"
         id="path270" />
      <path
         d="m 7800,600 h 400 V 400 h -400 v 200 0"
         style="fill:#396993;fill-opacity:1;fill-rule:evenodd;stroke:none"
         id="path272" />
      <path
         d="m 6400,400 h 600 V 200 h -600 v 200 0"
         style="fill:#396993;fill-opacity:1;fill-rule:evenodd;stroke:none"
         id="path274" />
      <path
         d="m 8200,400 h 400 V 200 h 400 V 0 h -600 -400 -800 -200 v 200 h 800 200 200 v 200 0"
         style="fill:#396993;fill-opacity:1;fill-rule:evenodd;stroke:none"
         id="path276" />
      <path
         d="m 3600,9400 h 400 v -200 h -200 v -200 h -200 v 400 0"
         style="fill:#ebffff;fill-opacity:1;fill-rule:evenodd;stroke:none"
         id="path278" />
      <path
         d="m 6800,7600 v 200 h 400 v -200 h -400 v 0"
         style="fill:#ebffff;fill-opacity:1;fill-rule:evenodd;stroke:none"
         id="path280" />
      <path
         d="m 6800,7600 v -200 h -200 v 200 h 200 v 0"
         style="fill:#ebffff;fill-opacity:1;fill-rule:evenodd;stroke:none"
         id="path282" />
      <path
         d="m 600,7400 h 400 V 7200 H 600 v 200 0"
         style="fill:#ebffff;fill-opacity:1;fill-rule:evenodd;stroke:none"
         id="path284" />
      <path
         d="m 3000,7000 v 200 h 400 v -200 h -400 v 0"
         style="fill:#ebffff;fill-opacity:1;fill-rule:evenodd;stroke:none"
         id="path286" />
      <path
         d="m 3000,7000 v -200 h -200 v 200 h 200 v 0"
         style="fill:#ebffff;fill-opacity:1;fill-rule:evenodd;stroke:none"
         id="path288" />
      <path
         d="m 400,6200 v 200 H 600 V 6200 H 400 v 0"
         style="fill:#ebffff;fill-opacity:1;fill-rule:evenodd;stroke:none"
         id="path290" />
      <path
         d="m 7800,5600 v 200 h 200 v -200 h -200 v 0"
         style="fill:#ebffff;fill-opacity:1;fill-rule:evenodd;stroke:none"
         id="path292" />
      <path
         d="m 5400,5400 h -200 v 200 h 200 v -200 0"
         style="fill:#ebffff;fill-opacity:1;fill-rule:evenodd;stroke:none"
         id="path294" />
      <path
         d="m 5400,5400 h 200 v -200 h -200 v 200 0"
         style="fill:#ebffff;fill-opacity:1;fill-rule:evenodd;stroke:none"
         id="path296" />
      <path
         d="m 800,4600 v 200 h 400 V 4600 H 1000 800 v 0"
         style="fill:#ebffff;fill-opacity:1;fill-rule:evenodd;stroke:none"
         id="path298" />
      <path
         d="m 6600,4600 v 200 h 200 v -200 h -200 v 0"
         style="fill:#ebffff;fill-opacity:1;fill-rule:evenodd;stroke:none"
         id="path300" />
      <path
         d="m 6400,4200 v 200 h 200 v -200 h -200 v 0"
         style="fill:#ebffff;fill-opacity:1;fill-rule:evenodd;stroke:none"
         id="path302" />
      <path
         d="m 4600,3600 v 200 h 200 v -200 h -200 v 0"
         style="fill:#ebffff;fill-opacity:1;fill-rule:evenodd;stroke:none"
         id="path304" />
      <path
         d="m 9400,3400 v -200 h -400 v 200 h 200 200 v 0"
         style="fill:#ebffff;fill-opacity:1;fill-rule:evenodd;stroke:none"
         id="path306" />
      <path
         d="m 3400,3000 v 200 h 400 v -200 h -400 v 0"
         style="fill:#ebffff;fill-opacity:1;fill-rule:evenodd;stroke:none"
         id="path308" />
      <path
         d="m 7000,3000 v 200 h 200 v -200 h -200 v 0"
         style="fill:#ebffff;fill-opacity:1;fill-rule:evenodd;stroke:none"
         id="path310" />
      <path
         d="m 8600,3000 v 200 h 200 v -200 h -200 v 0"
         style="fill:#ebffff;fill-opacity:1;fill-rule:evenodd;stroke:none"
         id="path312" />
      <path
         d="m 3400,3000 v -200 h -200 v 200 h 200 v 0"
         style="fill:#ebffff;fill-opacity:1;fill-rule:evenodd;stroke:none"
         id="path314" />
      <path
         d="m 1400,2400 v 200 h 200 v -200 h -200 v 0"
         style="fill:#ebffff;fill-opacity:1;fill-rule:evenodd;stroke:none"
         id="path316" />
      <path
         d="m 6800,2400 v 200 h 200 v -200 h -200 v 0"
         style="fill:#ebffff;fill-opacity:1;fill-rule:evenodd;stroke:none"
         id="path318" />
      <path
         d="m 1000,2200 v 200 h 200 v -200 h -200 v 0"
         style="fill:#ebffff;fill-opacity:1;fill-rule:evenodd;stroke:none"
         id="path320" />
      <path
         d="m 5600,1600 h -200 v 400 h 200 v -200 -200 0"
         style="fill:#ebffff;fill-opacity:1;fill-rule:evenodd;stroke:none"
         id="path322" />
      <path
         d="m 5600,1600 h 200 v -400 h -200 v 400 0"
         style="fill:#ebffff;fill-opacity:1;fill-rule:evenodd;stroke:none"
         id="path324" />
      <path
         d="m 3400,9400 h 200 v -400 h -200 v 200 200 0"
         style="fill:#8edfff;fill-opacity:1;fill-rule:evenodd;stroke:none"
         id="path326" />
      <path
         d="m 4000,9400 h 200 v -200 h 200 v -200 -200 h -200 v 200 h -200 v -200 -200 h -200 v 200 h -200 v 200 h 200 v 200 h 200 v 200 0"
         style="fill:#8edfff;fill-opacity:1;fill-rule:evenodd;stroke:none"
         id="path328" />
      <path
         d="m 4000,8600 h 200 v -200 h -200 v 200 0"
         style="fill:#8edfff;fill-opacity:1;fill-rule:evenodd;stroke:none"
         id="path330" />
      <path
         d="m 4200,8000 v 200 h 200 v -200 h -200 v 0"
         style="fill:#8edfff;fill-opacity:1;fill-rule:evenodd;stroke:none"
         id="path332" />
      <path
         d="m 4400,7800 h 200 v -400 h -200 v 200 200 0"
         style="fill:#8edfff;fill-opacity:1;fill-rule:evenodd;stroke:none"
         id="path334" />
      <path
         d="m 6800,7400 v 200 h 400 v -200 h -400 v 0"
         style="fill:#8edfff;fill-opacity:1;fill-rule:evenodd;stroke:none"
         id="path336" />
      <path
         d="M 1400,7000 H 600 v 200 h 400 v 200 h 400 v -400 0"
         style="fill:#8edfff;fill-opacity:1;fill-rule:evenodd;stroke:none"
         id="path338" />
      <path
         d="m 6600,7200 v 200 h 200 v -200 h -200 v 0"
         style="fill:#8edfff;fill-opacity:1;fill-rule:evenodd;stroke:none"
         id="path340" />
      <path
         d="m 3000,7000 h -200 v 200 h 200 v -200 0"
         style="fill:#8edfff;fill-opacity:1;fill-rule:evenodd;stroke:none"
         id="path342" />
      <path
         d="m 6600,7200 v -200 h -200 v 200 h 200 v 0"
         style="fill:#8edfff;fill-opacity:1;fill-rule:evenodd;stroke:none"
         id="path344" />
      <path
         d="m 1400,7000 h 400 v -200 h -400 v 200 0"
         style="fill:#8edfff;fill-opacity:1;fill-rule:evenodd;stroke:none"
         id="path346" />
      <path
         d="m 3000,7000 h 600 v -200 h 200 v -200 h -200 -200 v -200 h -200 -200 v 200 h -200 v 200 h 200 v 200 0"
         style="fill:#8edfff;fill-opacity:1;fill-rule:evenodd;stroke:none"
         id="path348" />
      <path
         d="m 2000,6600 v 200 h 200 v -200 h -200 v 0"
         style="fill:#8edfff;fill-opacity:1;fill-rule:evenodd;stroke:none"
         id="path350" />
      <path
         d="m 6400,6400 v 200 h 200 v -200 h -200 v 0"
         style="fill:#8edfff;fill-opacity:1;fill-rule:evenodd;stroke:none"
         id="path352" />
      <path
         d="M 200,6400 H 400 V 6200 H 800 V 6000 H 600 V 5800 H 400 200 v 600 0"
         style="fill:#8edfff;fill-opacity:1;fill-rule:evenodd;stroke:none"
         id="path354" />
      <path
         d="m 3400,6400 h 200 v -200 h -200 v 200 0"
         style="fill:#8edfff;fill-opacity:1;fill-rule:evenodd;stroke:none"
         id="path356" />
      <path
         d="m 3600,6200 h 200 v -200 h -200 v 200 0"
         style="fill:#8edfff;fill-opacity:1;fill-rule:evenodd;stroke:none"
         id="path358" />
      <path
         d="m 1000,5800 h 400 v -200 h -400 v 200 0"
         style="fill:#8edfff;fill-opacity:1;fill-rule:evenodd;stroke:none"
         id="path360" />
      <path
         d="m 8000,5600 v 200 h 200 v -200 h -200 v 0"
         style="fill:#8edfff;fill-opacity:1;fill-rule:evenodd;stroke:none"
         id="path362" />
      <path
         d="m 4200,5400 h -200 v 200 h 200 v -200 0"
         style="fill:#8edfff;fill-opacity:1;fill-rule:evenodd;stroke:none"
         id="path364" />
      <path
         d="m 5400,5400 v -200 h 200 v -200 h -200 v -400 h -200 v 200 200 h -200 v 600 h 200 v -200 h 200 v 0"
         style="fill:#8edfff;fill-opacity:1;fill-rule:evenodd;stroke:none"
         id="path366" />
      <path
         d="m 5400,5400 v 200 h 200 v -200 h -200 v 0"
         style="fill:#8edfff;fill-opacity:1;fill-rule:evenodd;stroke:none"
         id="path368" />
      <path
         d="m 7600,5400 v 200 h 200 v -200 h -200 v 0"
         style="fill:#8edfff;fill-opacity:1;fill-rule:evenodd;stroke:none"
         id="path370" />
      <path
         d="m 4200,5400 h 200 v -400 h -200 v 400 0"
         style="fill:#8edfff;fill-opacity:1;fill-rule:evenodd;stroke:none"
         id="path372" />
      <path
         d="m 600,4800 h 200 v -200 h 400 v 200 h 200 200 V 4600 H 1400 V 4400 H 1200 1000 800 600 v 400 0"
         style="fill:#8edfff;fill-opacity:1;fill-rule:evenodd;stroke:none"
         id="path374" />
      <path
         d="m 6600,4200 v 400 h 200 v 200 h 200 v -200 -200 h -200 v -200 h -200 v 0"
         style="fill:#8edfff;fill-opacity:1;fill-rule:evenodd;stroke:none"
         id="path376" />
      <path
         d="m 1800,4200 v 200 h 200 v -200 h -200 v 0"
         style="fill:#8edfff;fill-opacity:1;fill-rule:evenodd;stroke:none"
         id="path378" />
      <path
         d="m 2400,4200 h -200 v 200 h 200 v -200 0"
         style="fill:#8edfff;fill-opacity:1;fill-rule:evenodd;stroke:none"
         id="path380" />
      <path
         d="m 5400,4200 v 200 h 200 v -200 h -200 v 0"
         style="fill:#8edfff;fill-opacity:1;fill-rule:evenodd;stroke:none"
         id="path382" />
      <path
         d="m 2400,4200 h 200 v -200 h -200 v 200 0"
         style="fill:#8edfff;fill-opacity:1;fill-rule:evenodd;stroke:none"
         id="path384" />
      <path
         d="m 6600,4200 v -600 h -200 v 600 h 200 v 0"
         style="fill:#8edfff;fill-opacity:1;fill-rule:evenodd;stroke:none"
         id="path386" />
      <path
         d="m 5600,4000 h 200 v -400 h -200 v 200 200 0"
         style="fill:#8edfff;fill-opacity:1;fill-rule:evenodd;stroke:none"
         id="path388" />
      <path
         d="m 4400,3800 h 200 v -200 h 400 v -200 h -200 v -200 -200 h -200 v 200 h -200 v 200 200 200 0"
         style="fill:#8edfff;fill-opacity:1;fill-rule:evenodd;stroke:none"
         id="path390" />
      <path
         d="m 8600,3200 v 200 h 400 v -200 h 200 200 v -400 h -200 v 200 h -200 -200 v 200 h -200 v 0"
         style="fill:#8edfff;fill-opacity:1;fill-rule:evenodd;stroke:none"
         id="path392" />
      <path
         d="m 3400,3000 h -200 v 200 h 200 v -200 0"
         style="fill:#8edfff;fill-opacity:1;fill-rule:evenodd;stroke:none"
         id="path394" />
      <path
         d="m 7000,2400 v 600 h 200 v 200 h 200 v -200 -200 h -200 v -200 -200 h -200 v 0"
         style="fill:#8edfff;fill-opacity:1;fill-rule:evenodd;stroke:none"
         id="path396" />
      <path
         d="m 8600,3200 v -400 h -400 v -200 h -200 v 200 200 h 200 v 200 h 400 v 0"
         style="fill:#8edfff;fill-opacity:1;fill-rule:evenodd;stroke:none"
         id="path398" />
      <path
         d="m 3400,3000 h 600 v -200 h -200 v -200 -200 h -200 -200 v 200 h -200 v 200 h 200 v 200 0"
         style="fill:#8edfff;fill-opacity:1;fill-rule:evenodd;stroke:none"
         id="path400" />
      <path
         d="m 5800,2800 v 200 h 200 v -200 h -200 v 0"
         style="fill:#8edfff;fill-opacity:1;fill-rule:evenodd;stroke:none"
         id="path402" />
      <path
         d="m 4000,2800 h 200 v -200 h -200 v 200 0"
         style="fill:#8edfff;fill-opacity:1;fill-rule:evenodd;stroke:none"
         id="path404" />
      <path
         d="m 1600,2400 v 200 h 200 v -200 h -200 v 0"
         style="fill:#8edfff;fill-opacity:1;fill-rule:evenodd;stroke:none"
         id="path406" />
      <path
         d="m 2000,2400 v 200 h 200 v -200 h -200 v 0"
         style="fill:#8edfff;fill-opacity:1;fill-rule:evenodd;stroke:none"
         id="path408" />
      <path
         d="m 6400,600 h -400 v 200 h -200 v 200 h -200 v 200 h 200 v 200 200 h -200 v 200 200 h -200 v 200 200 h 200 v -200 h 200 v 200 200 h 200 v -600 -200 h 200 v -200 -200 h -200 v -200 h 200 V 1000 800 h 200 v -200 0"
         style="fill:#8edfff;fill-opacity:1;fill-rule:evenodd;stroke:none"
         id="path410" />
      <path
         d="m 1600,2400 v -200 h -200 v -200 h -200 -200 v 200 h 200 v 200 h 200 200 v 0"
         style="fill:#8edfff;fill-opacity:1;fill-rule:evenodd;stroke:none"
         id="path412" />
      <path
         d="m 3800,2400 h 200 v -200 h -200 v 200 0"
         style="fill:#8edfff;fill-opacity:1;fill-rule:evenodd;stroke:none"
         id="path414" />
      <path
         d="m 4200,2200 v 200 h 200 v -200 h -200 v 0"
         style="fill:#8edfff;fill-opacity:1;fill-rule:evenodd;stroke:none"
         id="path416" />
      <path
         d="m 7000,2400 v -800 h -200 v 800 h 200 v 0"
         style="fill:#8edfff;fill-opacity:1;fill-rule:evenodd;stroke:none"
         id="path418" />
      <path
         d="m 7800,2400 h 200 v -400 h -200 v 200 200 0"
         style="fill:#8edfff;fill-opacity:1;fill-rule:evenodd;stroke:none"
         id="path420" />
      <path
         d="m 4400,1800 v 200 h 200 v -200 h -200 v 0"
         style="fill:#8edfff;fill-opacity:1;fill-rule:evenodd;stroke:none"
         id="path422" />
      <path
         d="m 5600,1600 v -200 h -200 v 200 h 200 v 0"
         style="fill:#8edfff;fill-opacity:1;fill-rule:evenodd;stroke:none"
         id="path424" />
      <path
         d="m 7200,1000 h -400 v 200 h 200 v 200 h 200 v -400 0"
         style="fill:#8edfff;fill-opacity:1;fill-rule:evenodd;stroke:none"
         id="path426" />
      <path
         d="m 6400,1000 v 200 h 200 v -200 h -200 v 0"
         style="fill:#8edfff;fill-opacity:1;fill-rule:evenodd;stroke:none"
         id="path428" />
      <path
         d="m 7200,1000 h 200 V 800 h -200 v 200 0"
         style="fill:#8edfff;fill-opacity:1;fill-rule:evenodd;stroke:none"
         id="path430" />
      <path
         d="m 7400,800 h 200 V 600 h -200 v 200 0"
         style="fill:#8edfff;fill-opacity:1;fill-rule:evenodd;stroke:none"
         id="path432" />
      <path
         d="m 6400,600 h 600 V 400 h -600 v 200 0"
         style="fill:#8edfff;fill-opacity:1;fill-rule:evenodd;stroke:none"
         id="path434" />
      <path
         d="m 7600,600 h 200 V 400 h -200 v 200 0"
         style="fill:#8edfff;fill-opacity:1;fill-rule:evenodd;stroke:none"
         id="path436" />
      <path
         d="m 7000,200 v 200 h 400 V 200 h -400 v 0"
         style="fill:#8edfff;fill-opacity:1;fill-rule:evenodd;stroke:none"
         id="path438" />
      <path
         d="m 7800,200 v 200 h 400 V 200 h -400 v 0"
         style="fill:#8edfff;fill-opacity:1;fill-rule:evenodd;stroke:none"
         id="path440" />
      <path
         d="m 4000,9000 h 200 v -200 h 200 v -200 -200 h 200 v -600 h -200 v 200 200 h -200 v 200 200 h -200 v 200 200 0"
         style="fill:#5ca8eb;fill-opacity:1;fill-rule:evenodd;stroke:none"
         id="path442" />
      <path
         d="m 7200,7400 v -200 h -200 v -200 h -200 v -200 h -200 v -200 h -200 v 200 200 h 200 v 200 h 200 v 200 h 400 v 0"
         style="fill:#5ca8eb;fill-opacity:1;fill-rule:evenodd;stroke:none"
         id="path444" />
      <path
         d="m 1800,7000 h -400 v 200 h 400 v -200 0"
         style="fill:#5ca8eb;fill-opacity:1;fill-rule:evenodd;stroke:none"
         id="path446" />
      <path
         d="m 1800,7000 h 200 v -200 h -200 v 200 0"
         style="fill:#5ca8eb;fill-opacity:1;fill-rule:evenodd;stroke:none"
         id="path448" />
      <path
         d="m 3600,6600 h 200 v -200 h 200 v -200 -200 h 200 v -200 -200 h -200 v 200 h -200 v 200 200 h -200 v 200 h -200 v 200 h 200 v 0"
         style="fill:#5ca8eb;fill-opacity:1;fill-rule:evenodd;stroke:none"
         id="path450" />
      <path
         d="m 600,5800 v 200 h 200 v 200 h 200 v -200 h 200 V 5800 H 1000 600 v 0"
         style="fill:#5ca8eb;fill-opacity:1;fill-rule:evenodd;stroke:none"
         id="path452" />
      <path
         d="m 7800,5400 v 200 h 200 v -200 h -200 v 0"
         style="fill:#5ca8eb;fill-opacity:1;fill-rule:evenodd;stroke:none"
         id="path454" />
      <path
         d="m 7800,5400 v -200 h -200 v 200 h 200 v 0"
         style="fill:#5ca8eb;fill-opacity:1;fill-rule:evenodd;stroke:none"
         id="path456" />
      <path
         d="m 5400,5000 h 200 v -400 h 200 v -600 h -200 v 200 200 h -200 v 600 0"
         style="fill:#5ca8eb;fill-opacity:1;fill-rule:evenodd;stroke:none"
         id="path458" />
      <path
         d="m 2200,4200 h -200 v 200 h -600 v 200 h 200 v 200 h 200 v -200 h 200 200 v -400 0"
         style="fill:#5ca8eb;fill-opacity:1;fill-rule:evenodd;stroke:none"
         id="path460" />
      <path
         d="m 6800,4200 v 200 h 200 v -200 h -200 v 0"
         style="fill:#5ca8eb;fill-opacity:1;fill-rule:evenodd;stroke:none"
         id="path462" />
      <path
         d="m 6800,4200 v -200 h -200 v 200 h 200 v 0"
         style="fill:#5ca8eb;fill-opacity:1;fill-rule:evenodd;stroke:none"
         id="path464" />
      <path
         d="m 5200,2800 h -200 v 200 h -200 v 200 200 h 200 v -200 h 200 v -200 -200 0"
         style="fill:#5ca8eb;fill-opacity:1;fill-rule:evenodd;stroke:none"
         id="path466" />
      <path
         d="m 9200,3000 v -200 h -400 v -200 h -200 -200 v -200 h -200 v -200 h -200 v 200 200 h 200 v 200 h 200 200 v 200 h 200 400 v 0"
         style="fill:#5ca8eb;fill-opacity:1;fill-rule:evenodd;stroke:none"
         id="path468" />
      <path
         d="m 4200,2200 h -200 v 200 h -200 v 200 200 h 200 v -200 h 200 v -200 -200 0"
         style="fill:#5ca8eb;fill-opacity:1;fill-rule:evenodd;stroke:none"
         id="path470" />
      <path
         d="m 5200,2800 h 200 v -400 h -200 v 400 0"
         style="fill:#5ca8eb;fill-opacity:1;fill-rule:evenodd;stroke:none"
         id="path472" />
      <path
         d="m 5800,2600 v 200 h 200 v -200 h -200 v 0"
         style="fill:#5ca8eb;fill-opacity:1;fill-rule:evenodd;stroke:none"
         id="path474" />
      <path
         d="m 1800,2400 v 200 h 200 v -200 h -200 v 0"
         style="fill:#5ca8eb;fill-opacity:1;fill-rule:evenodd;stroke:none"
         id="path476" />
      <path
         d="m 1600,2200 v 200 h 200 v -200 h -200 v 0"
         style="fill:#5ca8eb;fill-opacity:1;fill-rule:evenodd;stroke:none"
         id="path478" />
      <path
         d="m 1600,2200 v -200 h -200 v 200 h 200 v 0"
         style="fill:#5ca8eb;fill-opacity:1;fill-rule:evenodd;stroke:none"
         id="path480" />
      <path
         d="m 4200,2200 h 200 v -200 h -200 v 200 0"
         style="fill:#5ca8eb;fill-opacity:1;fill-rule:evenodd;stroke:none"
         id="path482" />
      <path
         d="m 6800,1600 h 200 v -400 h -200 v 200 200 0"
         style="fill:#5ca8eb;fill-opacity:1;fill-rule:evenodd;stroke:none"
         id="path484" />
      <path
         d="m 7800,200 h -400 v 200 h -400 v 200 h -200 -200 -200 v 200 h -200 v 200 200 h -200 v 200 h 200 200 v -200 -200 h 200 200 V 800 h 200 v 200 h 200 V 800 h 200 V 600 h 200 V 400 h 200 v -200 0"
         style="fill:#5ca8eb;fill-opacity:1;fill-rule:evenodd;stroke:none"
         id="path486" />
    </g>
  </g>
</svg>
